<?xml version="1.0" standalone="no"?><!DOCTYPE svg PUBLIC "-//W3C//DTD SVG 1.1//EN" "http://www.w3.org/Graphics/SVG/1.1/DTD/svg11.dtd"><svg t="1524381042682" class="icon" style="" viewBox="0 0 1024 1024" version="1.1" xmlns="http://www.w3.org/2000/svg" p-id="2629" xmlns:xlink="http://www.w3.org/1999/xlink" width="200" height="200"><defs><style type="text/css"></style></defs><path d="M47.93344 167.1936h-0.98816v248.83712h933.248V355.31264c0.04096-1.00352 0.29696-1.9456 0.29696-2.95936V177.00864c0-1.01376-0.256-1.95584-0.29696-2.95936v-6.85568h-0.6912c-4.80256-33.50016-33.3312-59.3408-68.16256-59.3408H116.096c-34.82624 0.00512-63.36 25.84064-68.16256 59.3408z" fill="#F38181" p-id="2630"></path><path d="M979.5072 856.8064h0.98816V404.9152H47.24224v60.71296c-0.04096 1.00352-0.29696 1.9456-0.29696 2.95424v378.40384c0 1.01376 0.256 1.95584 0.29696 2.95424v6.85568h0.6912c4.80256 33.50016 33.3312 59.3408 68.16256 59.3408h795.24352c34.83136 0.00512 63.36512-25.8304 68.16768-59.33056z" fill="#E6E4E2" p-id="2631"></path><path d="M489.54368 646.2208c-4.83328 5.80608-9.02144 9.98912-19.98336 19.65568-6.12352 5.80608-12.5696 11.60704-18.688 17.40288-19.65568 18.37056-23.20896 22.89152-27.71456 38.03136h77.6704v43.19232H365.4656v-18.37056c0-25.13408 6.44096-44.14976 23.5264-62.848 11.92448-13.2096 25.7792-24.81152 38.99904-37.05856 19.01568-17.40288 22.88128-22.23616 22.88128-37.70368v-16.75776c0-4.51584 0-20.95104-17.40288-20.62848-11.60704 0-15.79008 6.76352-17.40288 11.60192-0.64512 1.93536-0.96768 4.51072-0.96768 9.344v31.90784h-47.69792v-29.32736c0-17.0752 0.96768-32.22528 14.50496-45.11744 9.02144-8.704 24.81664-16.75776 52.85376-16.75776 26.42944 0 41.25184 8.05888 50.2784 15.47264 2.2528 1.93024 9.02144 7.7312 12.5696 16.4352 2.89792 7.0912 3.8656 14.8224 3.8656 30.61248-0.00512 19.33312 0.64 34.79552-11.9296 50.91328zM654.87872 742.90688c-3.2256 5.16096-8.05888 9.02656-9.67168 10.31168-18.688 15.47264-42.86464 15.15008-50.2784 15.15008-25.45152 0-40.92928-8.05888-49.3056-15.15008-6.44608-5.4784-10.31168-11.60192-13.21984-19.33312-3.8656-11.27936-3.8656-22.56384-3.8656-34.16064v-103.45984c0-4.19328 0-8.704 0.32768-12.89216 0.31744-5.15072 1.28512-19.33312 11.60192-31.2576 8.704-10.63936 23.84896-19.01568 53.17632-19.01568 23.20896 0 53.17632 5.4784 63.16544 29.97248 2.90816 6.76352 3.87584 12.24192 3.87584 26.42944v15.79008h-47.05792v-11.92448c0-4.51584 0.64512-19.66592-16.75776-19.66592-19.33824 0-19.01568 16.11776-19.01568 21.59616v42.21952c6.44608-6.44608 14.50496-14.8224 34.80576-14.8224 27.71456 0 41.57952 13.85472 46.09024 24.81152 2.2528 5.80608 3.2256 9.67168 3.2256 20.95104v37.38624c-0.00512 12.89728 0.32256 25.78432-7.09632 37.06368z m-41.5744-65.41824c0-4.83328 1.6128-23.53152-17.72032-23.53152-4.83328 0-8.38656 0.65024-11.92448 3.54816-6.44608 5.4784-6.12864 13.85472-6.12864 21.26848v27.71456c0 5.80608-1.28512 21.91872 18.37056 21.91872 6.12352 0 9.02656-1.6128 11.60704-3.54816 5.79584-4.83328 6.12352-12.89216 6.12352-27.39712-0.00512-6.43584-0.00512-13.2096-0.32768-19.97312z" fill="#5B5144" p-id="2632"></path><path d="M455.91552 325.95456V239.50848l-18.54464 86.44608h-25.52832l-18.55488-86.44608v86.44608h-25.35424V205.81376h38.79936l17.87392 88.14592 17.86368-88.14592h39.31136v120.1408h-25.86624zM550.05696 325.95456l-4.08064-27.40224h-22.29248l-4.25472 27.40224H491.008l24.33536-120.1408h38.79936l24.32512 120.1408h-28.41088z m-14.97088-101.08416l-8.16128 53.43744h16.16384l-8.00256-53.43744zM629.56032 283.75552v42.19904h-28.42112v-42.19904l-28.59008-77.93664h28.59008l14.62784 53.0944 14.63808-53.0944h29.10208l-29.94688 77.93664z" fill="#FFFFFF" p-id="2633"></path></svg>